<mxfile host="Electron" modified="2024-02-05T18:12:54.376Z" agent="Mozilla/5.0 (X11; Linux x86_64) AppleWebKit/537.36 (KHTML, like Gecko) draw.io/23.0.2 Chrome/120.0.6099.109 Electron/28.1.0 Safari/537.36" etag="8n2mv-GBONaypX1sgplV" version="23.0.2" type="device">
  <diagram name="Page-1" id="boveJDGjG2tvdPGK0rzz">
    <mxGraphModel dx="2030" dy="1158" grid="1" gridSize="10" guides="1" tooltips="1" connect="1" arrows="1" fold="1" page="1" pageScale="1" pageWidth="850" pageHeight="1100" math="0" shadow="0">
      <root>
        <mxCell id="0" />
        <mxCell id="1" parent="0" />
        <mxCell id="aIZxGeL6Wt5F0xaHkzTp-8" style="edgeStyle=orthogonalEdgeStyle;rounded=0;orthogonalLoop=1;jettySize=auto;html=1;entryX=0;entryY=0.5;entryDx=0;entryDy=0;" parent="1" source="aIZxGeL6Wt5F0xaHkzTp-1" target="aIZxGeL6Wt5F0xaHkzTp-5" edge="1">
          <mxGeometry relative="1" as="geometry" />
        </mxCell>
        <mxCell id="aIZxGeL6Wt5F0xaHkzTp-1" value="Host PC" style="ellipse;whiteSpace=wrap;html=1;aspect=fixed;" parent="1" vertex="1">
          <mxGeometry x="40" y="360" width="80" height="80" as="geometry" />
        </mxCell>
        <mxCell id="aIZxGeL6Wt5F0xaHkzTp-3" value="" style="swimlane;startSize=0;" parent="1" vertex="1">
          <mxGeometry x="820" y="120" width="420" height="160" as="geometry" />
        </mxCell>
        <mxCell id="aIZxGeL6Wt5F0xaHkzTp-4" value="secrets_ap.h" style="text;html=1;align=left;verticalAlign=middle;resizable=0;points=[];autosize=1;strokeColor=none;fillColor=none;fontStyle=1" parent="aIZxGeL6Wt5F0xaHkzTp-3" vertex="1">
          <mxGeometry x="20" y="10" width="100" height="30" as="geometry" />
        </mxCell>
        <mxCell id="aIZxGeL6Wt5F0xaHkzTp-20" value="rootCA.pem" style="shape=note;whiteSpace=wrap;html=1;backgroundOutline=1;darkOpacity=0.05;fontSize=10;fillColor=#60a917;fontColor=#ffffff;strokeColor=#2D7600;" parent="aIZxGeL6Wt5F0xaHkzTp-3" vertex="1">
          <mxGeometry x="320" y="50" width="80" height="100" as="geometry" />
        </mxCell>
        <mxCell id="aIZxGeL6Wt5F0xaHkzTp-21" value="ap.key" style="shape=note;whiteSpace=wrap;html=1;backgroundOutline=1;darkOpacity=0.05;fontSize=10;fillColor=#1ba1e2;fontColor=#ffffff;strokeColor=#006EAF;" parent="aIZxGeL6Wt5F0xaHkzTp-3" vertex="1">
          <mxGeometry x="20" y="50" width="80" height="100" as="geometry" />
        </mxCell>
        <mxCell id="aIZxGeL6Wt5F0xaHkzTp-71" value="cmp1.crt" style="shape=note;whiteSpace=wrap;html=1;backgroundOutline=1;darkOpacity=0.05;fontSize=10;fillColor=#d80073;fontColor=#ffffff;strokeColor=#A50040;" parent="aIZxGeL6Wt5F0xaHkzTp-3" vertex="1">
          <mxGeometry x="120" y="50" width="80" height="100" as="geometry" />
        </mxCell>
        <mxCell id="aIZxGeL6Wt5F0xaHkzTp-72" value="cmp2.crt" style="shape=note;whiteSpace=wrap;html=1;backgroundOutline=1;darkOpacity=0.05;fontSize=10;fillColor=#e3c800;fontColor=#000000;strokeColor=#B09500;" parent="aIZxGeL6Wt5F0xaHkzTp-3" vertex="1">
          <mxGeometry x="220" y="50" width="80" height="100" as="geometry" />
        </mxCell>
        <mxCell id="aIZxGeL6Wt5F0xaHkzTp-87" value="" style="edgeStyle=orthogonalEdgeStyle;rounded=0;orthogonalLoop=1;jettySize=auto;html=1;" parent="1" source="aIZxGeL6Wt5F0xaHkzTp-5" target="aIZxGeL6Wt5F0xaHkzTp-86" edge="1">
          <mxGeometry relative="1" as="geometry" />
        </mxCell>
        <mxCell id="aIZxGeL6Wt5F0xaHkzTp-5" value="Deployment" style="whiteSpace=wrap;html=1;" parent="1" vertex="1">
          <mxGeometry x="160" y="360" width="120" height="80" as="geometry" />
        </mxCell>
        <mxCell id="aIZxGeL6Wt5F0xaHkzTp-23" value="" style="swimlane;startSize=0;" parent="1" vertex="1">
          <mxGeometry x="820" y="315" width="420" height="170" as="geometry" />
        </mxCell>
        <mxCell id="aIZxGeL6Wt5F0xaHkzTp-24" value="secrets_cmp1.h" style="text;html=1;align=left;verticalAlign=middle;resizable=0;points=[];autosize=1;strokeColor=none;fillColor=none;fontStyle=1" parent="aIZxGeL6Wt5F0xaHkzTp-23" vertex="1">
          <mxGeometry x="20" y="10" width="110" height="30" as="geometry" />
        </mxCell>
        <mxCell id="aIZxGeL6Wt5F0xaHkzTp-25" value="rootCA.pem" style="shape=note;whiteSpace=wrap;html=1;backgroundOutline=1;darkOpacity=0.05;fontSize=10;fillColor=#60a917;fontColor=#ffffff;strokeColor=#2D7600;" parent="aIZxGeL6Wt5F0xaHkzTp-23" vertex="1">
          <mxGeometry x="220" y="50" width="80" height="100" as="geometry" />
        </mxCell>
        <mxCell id="aIZxGeL6Wt5F0xaHkzTp-28" value="cmp1.key" style="shape=note;whiteSpace=wrap;html=1;backgroundOutline=1;darkOpacity=0.05;fontSize=10;fillColor=#d80073;fontColor=#ffffff;strokeColor=#A50040;" parent="aIZxGeL6Wt5F0xaHkzTp-23" vertex="1">
          <mxGeometry x="20" y="50" width="80" height="100" as="geometry" />
        </mxCell>
        <mxCell id="aIZxGeL6Wt5F0xaHkzTp-106" value="ap.crt" style="shape=note;whiteSpace=wrap;html=1;backgroundOutline=1;darkOpacity=0.05;fontSize=10;fillColor=#1ba1e2;fontColor=#ffffff;strokeColor=#006EAF;" parent="aIZxGeL6Wt5F0xaHkzTp-23" vertex="1">
          <mxGeometry x="120" y="50" width="80" height="100" as="geometry" />
        </mxCell>
        <mxCell id="aIZxGeL6Wt5F0xaHkzTp-30" value="" style="swimlane;startSize=0;" parent="1" vertex="1">
          <mxGeometry x="820" y="510" width="420" height="160" as="geometry" />
        </mxCell>
        <mxCell id="aIZxGeL6Wt5F0xaHkzTp-31" value="secrets_cmp2.h" style="text;html=1;align=left;verticalAlign=middle;resizable=0;points=[];autosize=1;strokeColor=none;fillColor=none;fontStyle=1" parent="aIZxGeL6Wt5F0xaHkzTp-30" vertex="1">
          <mxGeometry x="20" y="10" width="110" height="30" as="geometry" />
        </mxCell>
        <mxCell id="aIZxGeL6Wt5F0xaHkzTp-32" value="rootCA.pem" style="shape=note;whiteSpace=wrap;html=1;backgroundOutline=1;darkOpacity=0.05;fontSize=10;fillColor=#60a917;fontColor=#ffffff;strokeColor=#2D7600;" parent="aIZxGeL6Wt5F0xaHkzTp-30" vertex="1">
          <mxGeometry x="220" y="50" width="80" height="100" as="geometry" />
        </mxCell>
        <mxCell id="aIZxGeL6Wt5F0xaHkzTp-35" value="cmp2.key" style="shape=note;whiteSpace=wrap;html=1;backgroundOutline=1;darkOpacity=0.05;fontSize=10;fillColor=#e3c800;fontColor=#000000;strokeColor=#B09500;" parent="aIZxGeL6Wt5F0xaHkzTp-30" vertex="1">
          <mxGeometry x="20" y="50" width="80" height="100" as="geometry" />
        </mxCell>
        <mxCell id="aIZxGeL6Wt5F0xaHkzTp-107" value="ap.crt" style="shape=note;whiteSpace=wrap;html=1;backgroundOutline=1;darkOpacity=0.05;fontSize=10;fillColor=#1ba1e2;fontColor=#ffffff;strokeColor=#006EAF;" parent="aIZxGeL6Wt5F0xaHkzTp-30" vertex="1">
          <mxGeometry x="120" y="50" width="80" height="100" as="geometry" />
        </mxCell>
        <mxCell id="aIZxGeL6Wt5F0xaHkzTp-89" value="" style="edgeStyle=orthogonalEdgeStyle;rounded=0;orthogonalLoop=1;jettySize=auto;html=1;" parent="1" source="aIZxGeL6Wt5F0xaHkzTp-86" target="aIZxGeL6Wt5F0xaHkzTp-88" edge="1">
          <mxGeometry relative="1" as="geometry" />
        </mxCell>
        <mxCell id="aIZxGeL6Wt5F0xaHkzTp-86" value="Makefile" style="whiteSpace=wrap;html=1;" parent="1" vertex="1">
          <mxGeometry x="305" y="360" width="120" height="80" as="geometry" />
        </mxCell>
        <mxCell id="aIZxGeL6Wt5F0xaHkzTp-91" style="edgeStyle=orthogonalEdgeStyle;rounded=0;orthogonalLoop=1;jettySize=auto;html=1;exitX=0.5;exitY=1;exitDx=0;exitDy=0;entryX=0.5;entryY=0;entryDx=0;entryDy=0;dashed=1;" parent="1" source="aIZxGeL6Wt5F0xaHkzTp-88" target="aIZxGeL6Wt5F0xaHkzTp-90" edge="1">
          <mxGeometry relative="1" as="geometry" />
        </mxCell>
        <mxCell id="aIZxGeL6Wt5F0xaHkzTp-93" value="" style="edgeStyle=orthogonalEdgeStyle;rounded=0;orthogonalLoop=1;jettySize=auto;html=1;" parent="1" source="aIZxGeL6Wt5F0xaHkzTp-88" target="aIZxGeL6Wt5F0xaHkzTp-92" edge="1">
          <mxGeometry relative="1" as="geometry" />
        </mxCell>
        <mxCell id="aIZxGeL6Wt5F0xaHkzTp-88" value="gen_certs.sh" style="whiteSpace=wrap;html=1;" parent="1" vertex="1">
          <mxGeometry x="450" y="360" width="120" height="80" as="geometry" />
        </mxCell>
        <mxCell id="aIZxGeL6Wt5F0xaHkzTp-98" style="edgeStyle=orthogonalEdgeStyle;rounded=0;orthogonalLoop=1;jettySize=auto;html=1;entryX=0.5;entryY=1;entryDx=0;entryDy=0;dashed=1;" parent="1" source="aIZxGeL6Wt5F0xaHkzTp-90" target="aIZxGeL6Wt5F0xaHkzTp-92" edge="1">
          <mxGeometry relative="1" as="geometry">
            <Array as="points">
              <mxPoint x="730" y="660" />
              <mxPoint x="730" y="470" />
              <mxPoint x="660" y="470" />
            </Array>
          </mxGeometry>
        </mxCell>
        <mxCell id="aIZxGeL6Wt5F0xaHkzTp-90" value="" style="swimlane;startSize=0;" parent="1" vertex="1">
          <mxGeometry x="340" y="530" width="340" height="550" as="geometry" />
        </mxCell>
        <mxCell id="aIZxGeL6Wt5F0xaHkzTp-37" value="" style="swimlane;startSize=0;" parent="aIZxGeL6Wt5F0xaHkzTp-90" vertex="1">
          <mxGeometry x="30" y="20" width="290" height="120" as="geometry" />
        </mxCell>
        <mxCell id="aIZxGeL6Wt5F0xaHkzTp-38" value="rootCA.pem" style="shape=note;whiteSpace=wrap;html=1;backgroundOutline=1;darkOpacity=0.05;fontSize=10;fillColor=#60a917;fontColor=#ffffff;strokeColor=#2D7600;" parent="aIZxGeL6Wt5F0xaHkzTp-37" vertex="1">
          <mxGeometry x="100" y="10" width="80" height="100" as="geometry" />
        </mxCell>
        <mxCell id="aIZxGeL6Wt5F0xaHkzTp-39" value="rootCA.key" style="shape=note;whiteSpace=wrap;html=1;backgroundOutline=1;darkOpacity=0.05;fontSize=10;fillColor=#60a917;fontColor=#ffffff;strokeColor=#2D7600;" parent="aIZxGeL6Wt5F0xaHkzTp-37" vertex="1">
          <mxGeometry x="10" y="10" width="80" height="100" as="geometry" />
        </mxCell>
        <mxCell id="aIZxGeL6Wt5F0xaHkzTp-40" value="" style="swimlane;startSize=0;" parent="aIZxGeL6Wt5F0xaHkzTp-90" vertex="1">
          <mxGeometry x="30" y="150" width="290" height="120" as="geometry" />
        </mxCell>
        <mxCell id="aIZxGeL6Wt5F0xaHkzTp-9" value="ap.key" style="shape=note;whiteSpace=wrap;html=1;backgroundOutline=1;darkOpacity=0.05;fontSize=10;fillColor=#1ba1e2;fontColor=#ffffff;strokeColor=#006EAF;" parent="aIZxGeL6Wt5F0xaHkzTp-40" vertex="1">
          <mxGeometry x="10" y="10" width="80" height="100" as="geometry" />
        </mxCell>
        <mxCell id="aIZxGeL6Wt5F0xaHkzTp-10" value="ap.csr" style="shape=note;whiteSpace=wrap;html=1;backgroundOutline=1;darkOpacity=0.05;fontSize=10;fillColor=#1ba1e2;fontColor=#ffffff;strokeColor=#006EAF;" parent="aIZxGeL6Wt5F0xaHkzTp-40" vertex="1">
          <mxGeometry x="100" y="10" width="80" height="100" as="geometry" />
        </mxCell>
        <mxCell id="aIZxGeL6Wt5F0xaHkzTp-11" value="ap.crt" style="shape=note;whiteSpace=wrap;html=1;backgroundOutline=1;darkOpacity=0.05;fontSize=10;fillColor=#1ba1e2;fontColor=#ffffff;strokeColor=#006EAF;" parent="aIZxGeL6Wt5F0xaHkzTp-40" vertex="1">
          <mxGeometry x="190" y="10" width="80" height="100" as="geometry" />
        </mxCell>
        <mxCell id="aIZxGeL6Wt5F0xaHkzTp-43" value="" style="swimlane;startSize=0;" parent="aIZxGeL6Wt5F0xaHkzTp-90" vertex="1">
          <mxGeometry x="30" y="280" width="290" height="120" as="geometry" />
        </mxCell>
        <mxCell id="aIZxGeL6Wt5F0xaHkzTp-12" value="cmp1.key" style="shape=note;whiteSpace=wrap;html=1;backgroundOutline=1;darkOpacity=0.05;fontSize=10;fillColor=#d80073;fontColor=#ffffff;strokeColor=#A50040;" parent="aIZxGeL6Wt5F0xaHkzTp-43" vertex="1">
          <mxGeometry x="10" y="10" width="80" height="100" as="geometry" />
        </mxCell>
        <mxCell id="aIZxGeL6Wt5F0xaHkzTp-13" value="cmp1.csr" style="shape=note;whiteSpace=wrap;html=1;backgroundOutline=1;darkOpacity=0.05;fontSize=10;fillColor=#d80073;fontColor=#ffffff;strokeColor=#A50040;" parent="aIZxGeL6Wt5F0xaHkzTp-43" vertex="1">
          <mxGeometry x="100" y="10" width="80" height="100" as="geometry" />
        </mxCell>
        <mxCell id="aIZxGeL6Wt5F0xaHkzTp-14" value="cmp1.crt" style="shape=note;whiteSpace=wrap;html=1;backgroundOutline=1;darkOpacity=0.05;fontSize=10;fillColor=#d80073;fontColor=#ffffff;strokeColor=#A50040;" parent="aIZxGeL6Wt5F0xaHkzTp-43" vertex="1">
          <mxGeometry x="190" y="10" width="80" height="100" as="geometry" />
        </mxCell>
        <mxCell id="aIZxGeL6Wt5F0xaHkzTp-47" value="" style="swimlane;startSize=0;" parent="aIZxGeL6Wt5F0xaHkzTp-90" vertex="1">
          <mxGeometry x="30" y="410" width="290" height="120" as="geometry" />
        </mxCell>
        <mxCell id="aIZxGeL6Wt5F0xaHkzTp-15" value="cmp2.key" style="shape=note;whiteSpace=wrap;html=1;backgroundOutline=1;darkOpacity=0.05;fontSize=10;fillColor=#e3c800;fontColor=#000000;strokeColor=#B09500;" parent="aIZxGeL6Wt5F0xaHkzTp-47" vertex="1">
          <mxGeometry x="10" y="10" width="80" height="100" as="geometry" />
        </mxCell>
        <mxCell id="aIZxGeL6Wt5F0xaHkzTp-16" value="cmp2.csr" style="shape=note;whiteSpace=wrap;html=1;backgroundOutline=1;darkOpacity=0.05;fontSize=10;fillColor=#e3c800;fontColor=#000000;strokeColor=#B09500;" parent="aIZxGeL6Wt5F0xaHkzTp-47" vertex="1">
          <mxGeometry x="100" y="10" width="80" height="100" as="geometry" />
        </mxCell>
        <mxCell id="aIZxGeL6Wt5F0xaHkzTp-17" value="cmp2.crt" style="shape=note;whiteSpace=wrap;html=1;backgroundOutline=1;darkOpacity=0.05;fontSize=10;fillColor=#e3c800;fontColor=#000000;strokeColor=#B09500;" parent="aIZxGeL6Wt5F0xaHkzTp-47" vertex="1">
          <mxGeometry x="190" y="10" width="80" height="100" as="geometry" />
        </mxCell>
        <mxCell id="aIZxGeL6Wt5F0xaHkzTp-94" style="edgeStyle=orthogonalEdgeStyle;rounded=0;orthogonalLoop=1;jettySize=auto;html=1;entryX=0;entryY=0.5;entryDx=0;entryDy=0;dashed=1;" parent="1" source="aIZxGeL6Wt5F0xaHkzTp-92" target="aIZxGeL6Wt5F0xaHkzTp-3" edge="1">
          <mxGeometry relative="1" as="geometry" />
        </mxCell>
        <mxCell id="aIZxGeL6Wt5F0xaHkzTp-95" style="edgeStyle=orthogonalEdgeStyle;rounded=0;orthogonalLoop=1;jettySize=auto;html=1;exitX=1;exitY=0.5;exitDx=0;exitDy=0;entryX=0;entryY=0.5;entryDx=0;entryDy=0;dashed=1;" parent="1" source="aIZxGeL6Wt5F0xaHkzTp-92" target="aIZxGeL6Wt5F0xaHkzTp-23" edge="1">
          <mxGeometry relative="1" as="geometry" />
        </mxCell>
        <mxCell id="aIZxGeL6Wt5F0xaHkzTp-96" style="edgeStyle=orthogonalEdgeStyle;rounded=0;orthogonalLoop=1;jettySize=auto;html=1;exitX=1;exitY=0.5;exitDx=0;exitDy=0;entryX=0;entryY=0.5;entryDx=0;entryDy=0;dashed=1;" parent="1" source="aIZxGeL6Wt5F0xaHkzTp-92" target="aIZxGeL6Wt5F0xaHkzTp-30" edge="1">
          <mxGeometry relative="1" as="geometry" />
        </mxCell>
        <mxCell id="aIZxGeL6Wt5F0xaHkzTp-92" value="make_secrets.py" style="whiteSpace=wrap;html=1;" parent="1" vertex="1">
          <mxGeometry x="600" y="360" width="120" height="80" as="geometry" />
        </mxCell>
        <mxCell id="WD53f1EHbr3vkASpY00j-1" style="edgeStyle=orthogonalEdgeStyle;rounded=0;orthogonalLoop=1;jettySize=auto;html=1;entryX=1;entryY=0.5;entryDx=0;entryDy=0;dashed=1;" edge="1" parent="1" source="aIZxGeL6Wt5F0xaHkzTp-100" target="aIZxGeL6Wt5F0xaHkzTp-3">
          <mxGeometry relative="1" as="geometry" />
        </mxCell>
        <mxCell id="aIZxGeL6Wt5F0xaHkzTp-100" value="application_processor.c" style="shape=cube;whiteSpace=wrap;html=1;boundedLbl=1;backgroundOutline=1;darkOpacity=0.05;darkOpacity2=0.1;" parent="1" vertex="1">
          <mxGeometry x="1320" y="160" width="180" height="80" as="geometry" />
        </mxCell>
        <mxCell id="WD53f1EHbr3vkASpY00j-2" style="edgeStyle=orthogonalEdgeStyle;rounded=0;orthogonalLoop=1;jettySize=auto;html=1;exitX=0;exitY=0;exitDx=0;exitDy=30;exitPerimeter=0;entryX=1;entryY=0.5;entryDx=0;entryDy=0;dashed=1;" edge="1" parent="1" source="aIZxGeL6Wt5F0xaHkzTp-102" target="aIZxGeL6Wt5F0xaHkzTp-23">
          <mxGeometry relative="1" as="geometry" />
        </mxCell>
        <mxCell id="aIZxGeL6Wt5F0xaHkzTp-102" value="component.c" style="shape=cube;whiteSpace=wrap;html=1;boundedLbl=1;backgroundOutline=1;darkOpacity=0.05;darkOpacity2=0.1;" parent="1" vertex="1">
          <mxGeometry x="1320" y="370" width="180" height="80" as="geometry" />
        </mxCell>
        <mxCell id="WD53f1EHbr3vkASpY00j-3" style="edgeStyle=orthogonalEdgeStyle;rounded=0;orthogonalLoop=1;jettySize=auto;html=1;exitX=0;exitY=0;exitDx=0;exitDy=30;exitPerimeter=0;entryX=1;entryY=0.5;entryDx=0;entryDy=0;dashed=1;" edge="1" parent="1" source="aIZxGeL6Wt5F0xaHkzTp-104" target="aIZxGeL6Wt5F0xaHkzTp-30">
          <mxGeometry relative="1" as="geometry" />
        </mxCell>
        <mxCell id="aIZxGeL6Wt5F0xaHkzTp-104" value="component.c" style="shape=cube;whiteSpace=wrap;html=1;boundedLbl=1;backgroundOutline=1;darkOpacity=0.05;darkOpacity2=0.1;" parent="1" vertex="1">
          <mxGeometry x="1320" y="560" width="180" height="80" as="geometry" />
        </mxCell>
      </root>
    </mxGraphModel>
  </diagram>
</mxfile>
